<svg viewBox="0 0 100 100" xmlns="http://www.w3.org/2000/svg">
  <defs>
    <linearGradient id="pubgGradient" x1="0%" y1="0%" x2="100%" y2="100%">
      <stop offset="0%" stop-color="#F39C12" />
      <stop offset="50%" stop-color="#E67E22" />
      <stop offset="100%" stop-color="#D35400" />
    </linearGradient>
  </defs>
  
  <!-- Background circle -->
  <circle cx="50" cy="50" r="45" fill="url(#pubgGradient)" opacity="0.2"/>
  
  <!-- PUBG stylized text -->
  <g transform="translate(15, 30)">
    <!-- P -->
    <path d="M0 0 L0 40 M0 0 L15 0 Q20 0 20 10 Q20 20 15 20 L0 20" stroke="url(#pubgGradient)" stroke-width="4" stroke-linecap="round" fill="none"/>
    
    <!-- U -->
    <path d="M25 0 L25 30 Q25 40 35 40 Q45 40 45 30 L45 0" stroke="url(#pubgGradient)" stroke-width="4" stroke-linecap="round" fill="none"/>
    
    <!-- B -->
    <path d="M50 0 L50 40 M50 0 L60 0 Q65 0 65 10 Q65 20 60 20 L50 20 M50 20 L62 20 Q67 20 67 30 Q67 40 62 40 L50 40" stroke="url(#pubgGradient)" stroke-width="4" stroke-linecap="round" fill="none"/>
  </g>
  
  <!-- Crosshair/target symbol -->
  <g transform="translate(50, 70)">
    <circle cx="0" cy="0" r="8" stroke="#E67E22" stroke-width="2" fill="none"/>
    <line x1="-12" y1="0" x2="12" y2="0" stroke="#E67E22" stroke-width="2"/>
    <line x1="0" y1="-12" x2="0" y2="12" stroke="#E67E22" stroke-width="2"/>
  </g>
</svg>